<mxfile host="app.diagrams.net" modified="2023-03-01T07:40:17.489Z" agent="5.0 (X11; Ubuntu)" etag="3OqlU9S0eBJBXgLZ9jPV" version="20.8.23" type="github">
  <diagram name="第 1 页" id="gzoMGatJyzL26CWOYqO_">
    <mxGraphModel dx="880" dy="483" grid="1" gridSize="10" guides="1" tooltips="1" connect="1" arrows="1" fold="1" page="1" pageScale="1" pageWidth="827" pageHeight="1169" math="0" shadow="0">
      <root>
        <mxCell id="0" />
        <mxCell id="1" parent="0" />
      </root>
    </mxGraphModel>
  </diagram>
</mxfile>
